# xmcd
#
# Track frame offsets:
#	150
#	15565
#	34454
#	49776
#	64477
#	78264
#	94647
#	106649
#	120912
#	136347
#	150269
#
# Disc length: 2171 seconds
#
# Revision: 6
# Processed by: cddbd v1.5.2PL0 Copyright (c) Steve Scherf et al.
# Submitted via: audiograbber 1.83.01
#
DISCID=7c08790b
DTITLE=Various Artist - Last Of The Breed, cd 2
DYEAR=2007
DGENRE=Country
TTITLE0=Willie Nelson, Ray Price - Goin' Away Party
TTITLE1=Merle Haggard - If I Ever Get Lucky
TTITLE2=Willie, Merle, Ray - Sweet Memories
TTITLE3=Willie, Merle, Ray - Pick Me Up On Your Way Down
TTITLE4=Willie, Merle, Ray - I Love You Because
TTITLE5=Willie, Merle, Ray - Sweet Jesus
TTITLE6=Willie, Merle - Still Water Runs The Deepest
TTITLE7=Willie, Merle, Ray - I Love You So Much It Hurts
TTITLE8=Willie, Merle, Ray - That Silver Haired Daddy Of Mine
TTITLE9=Willie, Merle, Ray - I'll Keep On Loving You
TTITLE10=Willie Nelson - Night Watch
EXTD=
EXTT0=
EXTT1=
EXTT2=
EXTT3=
EXTT4=
EXTT5=
EXTT6=
EXTT7=
EXTT8=
EXTT9=
EXTT10=
PLAYORDER=
